<svg width="45" height="45" viewBox="0 0 9 9" fill="none" xmlns="http://www.w3.org/2000/svg">
<path fill-rule="evenodd" clip-rule="evenodd" d="M4.78443 1.20653C4.55919 1.09166 4.25399 1.08989 4.02695 1.20446C3.23341 1.72049 2.39437 2.2124 1.67569 2.70565C1.56872 2.79201 1.49281 2.91751 1.49411 3.06523C1.4954 3.21234 1.57285 3.33617 1.67917 3.42111C2.39437 3.85212 3.23341 4.34404 4.0094 4.90883C4.23464 5.0237 4.53985 5.02547 4.76688 4.9109C5.58273 4.34404 5.91834 4.18006 7.11815 3.40971C7.22511 3.32335 7.30102 3.19785 7.29973 3.05013C7.29844 2.90301 7.22098 2.77919 7.11467 2.69425C6.42177 2.2124 5.58273 1.72049 4.78443 1.20653ZM4.25796 1.64153C4.33839 1.60094 4.47052 1.60132 4.5515 1.64262C5.24711 2.04843 5.91834 2.54035 6.76891 3.05349C6.08615 3.52418 5.41492 4.01609 4.53588 4.47383C4.45544 4.51442 4.32331 4.51404 4.24233 4.47274C3.44003 4.01609 2.72999 3.52418 2.02493 3.06187C2.72999 2.54035 3.23341 2.2124 4.25796 1.64153Z" fill="#7E74F1"/>
<path d="M7.48359 4.26878C7.55721 4.38401 7.5213 4.53574 7.40338 4.60768L5.35369 5.85809C5.0793 5.98375 4.74165 6.1477 4.40807 6.14772C4.07449 6.14774 3.73684 5.98375 3.44003 5.8582L1.4128 4.62194C1.29486 4.55002 1.25892 4.3983 1.33253 4.28306C1.40613 4.16782 1.5614 4.13271 1.67933 4.20463L3.70657 5.44089C3.88919 5.55226 4.14849 5.65582 4.40807 5.65581C4.66765 5.65579 4.9045 5.5522 5.08708 5.44081L7.13677 4.19041C7.25469 4.11847 7.40997 4.15356 7.48359 4.26878Z" fill="#7E74F1"/>
<path d="M7.48357 5.5001C7.55721 5.61531 7.52132 5.76704 7.4034 5.839L5.62836 6.92215C5.0793 7.18468 4.82938 7.34692 4.39687 7.34695C3.96436 7.34697 3.40122 7.0207 3.16531 6.92229L1.41277 5.85326C1.29485 5.78133 1.25893 5.6296 1.33254 5.51437C1.40616 5.39914 1.56143 5.36404 1.67936 5.43598L3.4319 6.50501C3.69134 6.66327 4.03837 6.80363 4.39687 6.80361C4.75538 6.80359 5.10232 6.66319 5.3617 6.50491L7.13675 5.42176C7.25466 5.3498 7.40994 5.38488 7.48357 5.5001Z" fill="#7E74F1"/>
</svg>
