<svg width="20" height="21" viewBox="0 0 20 21" fill="none" xmlns="http://www.w3.org/2000/svg">
<rect x="0.0811768" y="0.667725" width="19.3744" height="19.3744" rx="5.53556" fill="#F5F3FE"/>
<g clip-path="url(#clip0_1_325)">
<path d="M6.75609 8.03468C6.8187 7.97207 6.90519 7.93335 7.00073 7.93335H12.5363C12.6318 7.93335 12.7183 7.97207 12.7809 8.03468M6.75609 8.03468C6.69348 8.09729 6.65475 8.18378 6.65475 8.27932V12.431C6.65475 12.6221 6.80965 12.777 7.00073 12.777H12.5363C12.7274 12.777 12.8823 12.6221 12.8823 12.431V8.27932C12.8823 8.18378 12.8435 8.09729 12.7809 8.03468M6.75609 8.03468L9.27923 10.5578C9.54945 10.828 9.98756 10.828 10.2578 10.5578L12.7809 8.03468" stroke="#7E74F1" stroke-width="0.518958" stroke-linecap="round" stroke-linejoin="round"/>
</g>
<defs>
<clipPath id="clip0_1_325">
<rect width="8.30334" height="8.30334" fill="white" transform="translate(5.61682 6.20325)"/>
</clipPath>
</defs>
</svg>
