<svg width="10" height="9" viewBox="0 0 10 9" fill="none" xmlns="http://www.w3.org/2000/svg">
<path d="M4.37526 7.79052C4.37525 7.73978 4.36408 7.68966 4.34255 7.64372C4.32101 7.59777 4.28963 7.55713 4.25064 7.52467C4.21165 7.4922 4.16599 7.46871 4.11691 7.45585C4.06782 7.443 4.01651 7.4411 3.96661 7.45029C3.51371 7.5334 2.94187 7.5459 2.78983 7.11885C2.65726 6.7881 2.43766 6.49939 2.15431 6.28332C2.13409 6.27233 2.11483 6.25967 2.09671 6.24548C2.07191 6.18007 2.02786 6.12371 1.97038 6.08384C1.9129 6.04397 1.84468 6.02246 1.77472 6.02215H1.77303C1.68156 6.02212 1.59379 6.05833 1.52895 6.12285C1.46411 6.18738 1.42747 6.27496 1.42706 6.36644C1.42571 6.64855 1.70764 6.82931 1.82202 6.89046C1.9569 7.02598 2.06529 7.18548 2.14164 7.36077C2.26767 7.71485 2.63391 8.25205 3.68669 8.1828C3.68704 8.19496 3.68737 8.20645 3.68754 8.21692L3.68905 8.3095C3.68905 8.40125 3.72551 8.48925 3.79039 8.55413C3.85527 8.61902 3.94327 8.65547 4.03503 8.65547C4.12678 8.65547 4.21478 8.61902 4.27967 8.55413C4.34455 8.48925 4.381 8.40125 4.381 8.3095L4.37931 8.19935C4.37762 8.13379 4.37526 8.03884 4.37526 7.79052ZM8.06574 2.55734C8.07672 2.51409 8.08754 2.46612 8.097 2.41206C8.15295 2.0265 8.10417 1.63299 7.95577 1.27277C7.93704 1.22581 7.90827 1.18351 7.87147 1.14885C7.83467 1.11418 7.79074 1.08798 7.74275 1.07208C7.61958 1.03053 7.16483 0.948762 6.29517 1.50455C5.57227 1.33443 4.81976 1.33443 4.09686 1.50455C3.23075 0.956903 2.77834 1.03122 2.65638 1.07041C2.6072 1.08566 2.56206 1.11172 2.52427 1.14668C2.48647 1.18164 2.45698 1.22462 2.43795 1.27246C2.28651 1.6396 2.23827 2.04113 2.29841 2.43369C2.30686 2.47795 2.31598 2.51884 2.32544 2.55634C2.03883 2.9381 1.88616 3.40375 1.89112 3.8811C1.89018 3.9876 1.89509 4.09407 1.90581 4.20004C2.02137 5.79239 3.05928 6.27047 3.78247 6.43468C3.76744 6.47792 3.75376 6.52421 3.74159 6.5732C3.71991 6.66222 3.73442 6.7562 3.78193 6.83453C3.82945 6.91287 3.90608 6.96917 3.99504 6.99109C4.084 7.013 4.17802 6.99875 4.25649 6.95144C4.33495 6.90414 4.39145 6.82765 4.4136 6.73875C4.43562 6.62348 4.49204 6.51758 4.57544 6.43501C4.62587 6.39086 4.66238 6.33301 4.68053 6.26849C4.69868 6.20397 4.6977 6.13557 4.67769 6.07161C4.65768 6.00764 4.61951 5.95087 4.56783 5.90819C4.51614 5.86552 4.45317 5.83879 4.38658 5.83125C3.19155 5.69475 2.67276 5.20789 2.59472 4.13653C2.58607 4.05167 2.58218 3.96639 2.58306 3.8811C2.57751 3.54089 2.68991 3.20925 2.90116 2.94252C2.92238 2.91471 2.94499 2.88798 2.9689 2.86244C3.01126 2.81504 3.03974 2.75689 3.05121 2.69437C3.06268 2.63185 3.05671 2.56737 3.03394 2.50802C3.0106 2.44559 2.99263 2.38127 2.98022 2.31578C2.95204 2.12955 2.96128 1.93956 3.00742 1.75695C3.30811 1.84188 3.59111 1.98012 3.84294 2.16509C3.88458 2.19282 3.93171 2.21128 3.98111 2.21921C4.03052 2.22714 4.08105 2.22435 4.12928 2.21104C4.82853 2.02127 5.56573 2.02139 6.26491 2.21138C6.31341 2.22468 6.36421 2.22731 6.41382 2.21909C6.46342 2.21086 6.51066 2.19198 6.55227 2.16375C6.80292 1.97801 7.08473 1.83853 7.38443 1.75189C7.43036 1.93012 7.44063 2.11567 7.41466 2.29788C7.40213 2.36968 7.38255 2.44007 7.35621 2.50803C7.33344 2.56738 7.32747 2.63186 7.33894 2.69438C7.35042 2.7569 7.3789 2.81505 7.42125 2.86245C7.44795 2.89252 7.47464 2.92495 7.49862 2.95536C7.70838 3.21758 7.81888 3.54541 7.81065 3.8811C7.81128 3.97092 7.80694 4.0607 7.79764 4.15004C7.72146 5.20721 7.20064 5.69441 6.00004 5.83124C5.93343 5.83883 5.87045 5.86561 5.81877 5.90832C5.7671 5.95104 5.72894 6.00785 5.70895 6.07184C5.68896 6.13584 5.688 6.20426 5.70618 6.2688C5.72436 6.33333 5.76089 6.39119 5.81135 6.43535C5.89737 6.52012 5.95391 6.63025 5.97268 6.74956C5.99606 6.84218 6.0068 6.93753 6.00461 7.03303V7.84053C6.00122 8.06452 6.00122 8.23244 6.00122 8.30947C6.00122 8.40123 6.03767 8.48923 6.10255 8.55411C6.16743 8.619 6.25543 8.65545 6.34719 8.65545C6.43895 8.65545 6.52695 8.619 6.59183 8.55411C6.65671 8.48923 6.69316 8.40123 6.69316 8.30947C6.69316 8.23447 6.69316 8.06993 6.69654 7.84593V7.03303C6.69933 6.88005 6.68131 6.7274 6.64299 6.57927C6.63203 6.53065 6.61861 6.48261 6.60278 6.43535C7.1291 6.34792 7.6073 6.07656 7.95229 5.66958C8.29728 5.2626 8.48665 4.74641 8.48671 4.21288C8.49811 4.10266 8.50341 3.9919 8.5026 3.8811C8.51028 3.40323 8.35634 2.93678 8.06574 2.55735L8.06574 2.55734Z" fill="rgba(101, 109, 114, 1)
" fill-opacity="0.7"/>
</svg>
