<svg width="45" height="45" viewBox="0 0 9 9" fill="none" xmlns="http://www.w3.org/2000/svg">
<path d="M7.61929 4.2332C7.61929 5.95287 6.22521 7.34695 4.50554 7.34695M7.61929 4.2332C7.61929 2.51352 6.22521 1.11945 4.50554 1.11945M7.61929 4.2332H1.39178M4.50554 7.34695C2.78586 7.34695 1.39178 5.95287 1.39178 4.2332M4.50554 7.34695C4.50554 7.34695 5.88942 6.30903 5.88942 4.2332C5.88942 2.15736 4.50554 1.11945 4.50554 1.11945M4.50554 7.34695C4.50554 7.34695 3.12165 6.30903 3.12165 4.2332C3.12165 2.15736 4.50554 1.11945 4.50554 1.11945M1.39178 4.2332C1.39178 2.51352 2.78586 1.11945 4.50554 1.11945" stroke="#7E74F1" stroke-width="0.518958"/>
</svg>
