<svg width="9" height="9" viewBox="0 0 9 9" fill="none" xmlns="http://www.w3.org/2000/svg">
<g clip-path="url(#clip0_1_541)">
<path d="M4.66845 3.11887C4.32631 3.11887 3.99186 3.22032 3.70739 3.4104C3.42291 3.60048 3.20119 3.87065 3.07026 4.18674C2.93934 4.50283 2.90508 4.85065 2.97183 5.18621C3.03857 5.52177 3.20333 5.83 3.44525 6.07193C3.68718 6.31385 3.99541 6.47861 4.33097 6.54535C4.66653 6.6121 5.01435 6.57784 5.33044 6.44691C5.64653 6.31598 5.9167 6.09426 6.10678 5.80979C6.29685 5.52532 6.39831 5.19086 6.39831 4.84873C6.39831 4.38994 6.21606 3.94995 5.89164 3.62553C5.56723 3.30112 5.12724 3.11887 4.66845 3.11887V3.11887ZM4.66845 5.88665C4.46317 5.88665 4.2625 5.82577 4.09181 5.71173C3.92113 5.59768 3.78809 5.43558 3.70954 5.24592C3.63098 5.05627 3.61043 4.84758 3.65047 4.64624C3.69052 4.44491 3.78937 4.25997 3.93453 4.11481C4.07968 3.96966 4.26462 3.8708 4.46596 3.83076C4.6673 3.79071 4.87599 3.81126 5.06564 3.88982C5.2553 3.96838 5.4174 4.10141 5.53144 4.27209C5.64549 4.44278 5.70636 4.64345 5.70636 4.84873C5.70636 5.124 5.59701 5.388 5.40237 5.58265C5.20772 5.7773 4.94372 5.88665 4.66845 5.88665ZM6.39831 2.7729C6.32988 2.7729 6.26299 2.79319 6.2061 2.8312C6.1492 2.86922 6.10486 2.92325 6.07867 2.98647C6.05249 3.04969 6.04564 3.11925 6.05898 3.18636C6.07233 3.25348 6.10528 3.31512 6.15367 3.36351C6.20205 3.41189 6.2637 3.44484 6.33081 3.45819C6.39792 3.47154 6.46749 3.46469 6.53071 3.43851C6.59392 3.41232 6.64796 3.36798 6.68597 3.31108C6.72399 3.25419 6.74428 3.1873 6.74428 3.11887C6.74428 3.02711 6.70783 2.93911 6.64295 2.87423C6.57807 2.80935 6.49007 2.7729 6.39831 2.7729ZM8.10741 3.54787C8.10168 3.25221 8.04552 2.9597 7.94135 2.68294C7.84474 2.4311 7.69626 2.20239 7.50552 2.01165C7.31479 1.82092 7.08608 1.67243 6.83423 1.57583C6.55747 1.47166 6.26496 1.4155 5.9693 1.40977C5.63371 1.38901 5.523 1.38901 4.66845 1.38901C3.8139 1.38901 3.70318 1.38901 3.36759 1.40977C3.07193 1.4155 2.77942 1.47166 2.50266 1.57583C2.25082 1.67243 2.0221 1.82092 1.83137 2.01165C1.64064 2.20239 1.49215 2.4311 1.39555 2.68294C1.29138 2.9597 1.23522 3.25221 1.22948 3.54787C1.20872 3.88693 1.20872 3.99764 1.20872 4.84873C1.20872 5.69982 1.20872 5.81053 1.22948 6.14959C1.23522 6.44525 1.29138 6.73776 1.39555 7.01452C1.49215 7.26636 1.64064 7.49508 1.83137 7.68581C2.0221 7.87654 2.25082 8.02503 2.50266 8.12163C2.77942 8.2258 3.07193 8.28196 3.36759 8.28769C3.71356 8.28769 3.8139 8.30845 4.66845 8.30845C5.523 8.30845 5.63371 8.30845 5.9693 8.28769C6.26496 8.28196 6.55747 8.2258 6.83423 8.12163C7.08608 8.02503 7.31479 7.87654 7.50552 7.68581C7.69626 7.49508 7.84474 7.26636 7.94135 7.01452C8.04552 6.73776 8.10168 6.44525 8.10741 6.14959C8.10741 5.80361 8.12817 5.69982 8.12817 4.84873C8.12817 3.99764 8.12817 3.88693 8.10741 3.54787ZM7.41547 6.11845C7.4094 6.33801 7.36853 6.55521 7.29438 6.76196C7.23307 6.92537 7.13616 7.0731 7.01068 7.19442C6.89008 7.31996 6.74206 7.41587 6.57821 7.47466C6.37098 7.55185 6.15233 7.59394 5.93125 7.59921C5.60603 7.59921 5.5057 7.61651 4.66499 7.61651C3.82428 7.61651 3.7274 7.61651 3.40219 7.61651C3.18147 7.61081 2.96306 7.56993 2.75522 7.49542C2.5918 7.43411 2.44408 7.3372 2.32276 7.21172C2.19722 7.09112 2.10131 6.94311 2.04252 6.77926C1.96564 6.57313 1.92356 6.35567 1.91797 6.13575C1.91797 5.78977 1.91797 5.70328 1.91797 4.86603C1.91797 4.02878 1.91797 3.92844 1.91797 3.59631C1.92393 3.37531 1.966 3.15677 2.04252 2.94934C2.10222 2.78695 2.19804 2.64026 2.32276 2.52034C2.44335 2.3948 2.59137 2.29889 2.75522 2.2401C2.96246 2.16291 3.18111 2.12082 3.40219 2.11555C3.7274 2.08095 3.82774 2.08095 4.66845 2.08095C5.50916 2.08095 5.60949 2.08095 5.93471 2.08095C6.15687 2.0866 6.3766 2.12868 6.58513 2.2055C6.74752 2.2652 6.89422 2.36103 7.01414 2.48574C7.13967 2.60634 7.23559 2.75436 7.29438 2.91821C7.37907 3.12875 7.42705 3.35226 7.43623 3.57901C7.43623 3.92498 7.45352 4.01148 7.45352 4.84873C7.45352 5.68598 7.43623 5.78632 7.43623 6.11845H7.41547Z" fill="rgba(101, 109, 114, 1)
" fill-opacity="0.7"/>
</g>
<defs>
<clipPath id="clip0_1_541">
<rect width="8.30334" height="8.30334" fill="white" transform="translate(0.516693 0.697067)"/>
</clipPath>
</defs>
</svg>
