<svg width="9" height="9" viewBox="0 0 9 9" fill="none" xmlns="http://www.w3.org/2000/svg">
<g clip-path="url(#clip0_1_547)">
<path d="M6.69461 3.81045C6.38487 3.81031 6.07993 3.88693 5.80704 4.03344C5.78214 3.96785 5.73787 3.91139 5.68012 3.87156C5.62236 3.83173 5.55386 3.81041 5.4837 3.81045H4.09981C4.05437 3.81042 4.00937 3.81935 3.96738 3.83673C3.9254 3.85411 3.88725 3.87959 3.85512 3.91172C3.82298 3.94385 3.7975 3.982 3.78012 4.02399C3.76275 4.06598 3.75382 4.11098 3.75384 4.15642V8.30809C3.75381 8.35353 3.76275 8.39853 3.78012 8.44051C3.7975 8.4825 3.82298 8.52065 3.85511 8.55278C3.88725 8.58492 3.9254 8.6104 3.96738 8.62778C4.00937 8.64515 4.05437 8.65408 4.09981 8.65406H5.4837C5.52914 8.65408 5.57414 8.64515 5.61613 8.62778C5.65812 8.6104 5.69627 8.58492 5.7284 8.55278C5.76053 8.52065 5.78602 8.4825 5.80339 8.44051C5.82077 8.39853 5.8297 8.35353 5.82967 8.30809V6.40524C5.82967 6.31348 5.86613 6.22548 5.93101 6.1606C5.99589 6.09572 6.08389 6.05927 6.17565 6.05927C6.2674 6.05927 6.3554 6.09572 6.42029 6.1606C6.48517 6.22548 6.52162 6.31348 6.52162 6.40524V8.30809C6.52159 8.35353 6.53052 8.39853 6.5479 8.44051C6.56528 8.4825 6.59076 8.52065 6.62289 8.55278C6.65502 8.58492 6.69318 8.6104 6.73516 8.62778C6.77715 8.64515 6.82215 8.65408 6.86759 8.65406H8.25148C8.29692 8.65408 8.34192 8.64515 8.38391 8.62778C8.4259 8.6104 8.46405 8.58492 8.49618 8.55278C8.52831 8.52065 8.55379 8.4825 8.57117 8.44051C8.58855 8.39853 8.59748 8.35353 8.59745 8.30809V5.71329C8.59683 5.20882 8.39615 4.72519 8.03943 4.36847C7.68271 4.01175 7.19908 3.81107 6.69461 3.81045V3.81045ZM7.90551 7.96211H7.21356V6.40524C7.21356 6.12997 7.10421 5.86597 6.90957 5.67132C6.71492 5.47667 6.45092 5.36732 6.17565 5.36732C5.90037 5.36732 5.63638 5.47667 5.44173 5.67132C5.24708 5.86597 5.13773 6.12997 5.13773 6.40524V7.96211H4.44579V4.50239H5.13773V4.74565C5.13777 4.81734 5.16007 4.88724 5.20154 4.94571C5.24302 5.00418 5.30162 5.04833 5.36927 5.07207C5.43691 5.0958 5.51025 5.09795 5.57917 5.07821C5.64808 5.05848 5.70917 5.01783 5.75399 4.96189C5.90926 4.76469 6.12222 4.62091 6.36316 4.55061C6.60409 4.48031 6.86097 4.487 7.09791 4.56975C7.33486 4.65251 7.54005 4.80719 7.68483 5.0122C7.82962 5.21721 7.90677 5.46232 7.90551 5.71329V7.96211ZM3.0619 3.81045H1.67801C1.63257 3.81042 1.58757 3.81935 1.54558 3.83673C1.50359 3.85411 1.46544 3.87959 1.43331 3.91172C1.40118 3.94385 1.3757 3.982 1.35832 4.02399C1.34094 4.06598 1.33201 4.11098 1.33204 4.15642V8.30809C1.33201 8.35353 1.34094 8.39853 1.35832 8.44051C1.37569 8.4825 1.40118 8.52065 1.43331 8.55278C1.46544 8.58492 1.50359 8.6104 1.54558 8.62778C1.58757 8.64515 1.63257 8.65408 1.67801 8.65406H3.0619C3.10734 8.65408 3.15234 8.64515 3.19433 8.62778C3.23631 8.6104 3.27446 8.58492 3.30659 8.55278C3.33873 8.52065 3.36421 8.4825 3.38159 8.44051C3.39896 8.39853 3.4079 8.35353 3.40787 8.30809V4.15642C3.40789 4.11098 3.39896 4.06598 3.38159 4.02399C3.36421 3.982 3.33873 3.94385 3.30659 3.91172C3.27446 3.87959 3.23631 3.85411 3.19432 3.83673C3.15234 3.81935 3.10734 3.81042 3.0619 3.81045V3.81045ZM2.71592 7.96211H2.02398V4.50239H2.71592V7.96211ZM2.37502 1.23053C2.22361 1.22147 2.07194 1.2433 1.92923 1.29469C1.78652 1.34608 1.65575 1.42597 1.54488 1.52948C1.43401 1.633 1.34536 1.75799 1.28431 1.89684C1.22326 2.03569 1.19109 2.18551 1.18976 2.33719C1.18843 2.48887 1.21797 2.63923 1.27657 2.77913C1.33517 2.91904 1.42162 3.04556 1.53066 3.151C1.63969 3.25645 1.76904 3.33861 1.91082 3.3925C2.05261 3.44639 2.20387 3.47088 2.35542 3.46447H2.36522C2.51703 3.47349 2.66909 3.45146 2.8121 3.39973C2.95511 3.34799 3.08606 3.26764 3.19697 3.16359C3.30788 3.05953 3.3964 2.93395 3.45714 2.79453C3.51787 2.6551 3.54954 2.50476 3.55021 2.35268C3.55087 2.2006 3.52053 2.04998 3.46102 1.91003C3.40151 1.77008 3.31409 1.64373 3.2041 1.5387C3.09411 1.43368 2.96386 1.35218 2.82131 1.2992C2.67876 1.24621 2.5269 1.22285 2.37502 1.23053H2.37502ZM2.36522 2.77253H2.35542C2.29559 2.77979 2.2349 2.77418 2.17742 2.75607C2.11993 2.73796 2.06698 2.70777 2.02213 2.66751C1.97727 2.62726 1.94153 2.57789 1.91732 2.52269C1.89311 2.4675 1.88098 2.40777 1.88174 2.34751C1.88174 2.08938 2.07534 1.92247 2.37502 1.92247C2.43546 1.91442 2.49693 1.9194 2.55528 1.9371C2.61363 1.9548 2.66751 1.9848 2.71329 2.02507C2.75907 2.06535 2.79569 2.11496 2.82068 2.17058C2.84567 2.2262 2.85845 2.28653 2.85816 2.34751C2.85816 2.60563 2.66457 2.77253 2.36522 2.77253Z" fill="rgba(101, 109, 114, 1)
" fill-opacity="0.7"/>
</g>
<defs>
<clipPath id="clip0_1_547">
<rect width="8.30334" height="8.30334" fill="white" transform="translate(0.640045 0.697027)"/>
</clipPath>
</defs>
</svg>
