<svg width="64" height="17" viewBox="0 0 64 17" fill="none" xmlns="http://www.w3.org/2000/svg">
<path d="M5.86703 10.5039C5.61623 10.5039 5.40489 10.418 5.23305 10.2462C5.06121 10.0696 4.9753 9.85835 4.9753 9.61218V7.82872H5.86703V9.16632C5.86703 9.29169 5.90885 9.39852 5.9924 9.4868C6.08069 9.57036 6.18752 9.61218 6.31289 9.61218H10.3257C10.3257 9.86298 10.2374 10.0743 10.0609 10.2462C9.88446 10.418 9.67548 10.5039 9.43395 10.5039H5.86703ZM4.9753 6.93699V6.04526H10.3257C10.3257 6.29606 10.2374 6.5074 10.0609 6.67923C9.88446 6.85107 9.67548 6.93699 9.43395 6.93699H4.9753ZM11.2174 10.5039V7.82872C11.2174 7.58256 11.3033 7.37358 11.4752 7.20174C11.6517 7.02523 11.863 6.93699 12.1091 6.93699H15.6761V10.5039H14.7843V7.82872H12.555C12.4296 7.82872 12.3228 7.87286 12.2345 7.9611C12.151 8.04933 12.1091 8.15385 12.1091 8.27459V9.61218H14.7843C14.7843 9.86298 14.6961 10.0743 14.5196 10.2462C14.3431 10.418 14.1341 10.5039 13.8926 10.5039H11.2174ZM16.5678 10.5039V6.04526H17.4595V10.5039H16.5678ZM19.243 10.5039C18.9922 10.5039 18.7809 10.418 18.609 10.2462C18.4372 10.0696 18.3513 9.85835 18.3513 9.61218V7.82872C18.3513 7.58256 18.4372 7.37358 18.609 7.20174C18.7855 7.02523 18.9968 6.93699 19.243 6.93699H22.8099L21.4723 8.27459H22.8099L21.9182 9.16632H19.6889L21.0265 7.82872H19.6889C19.5635 7.82872 19.4567 7.87286 19.3684 7.9611C19.2848 8.04933 19.243 8.15385 19.243 8.27459V9.16632C19.243 9.29169 19.2848 9.39852 19.3684 9.4868C19.4567 9.57036 19.5635 9.61218 19.6889 9.61218H22.8099C22.8099 9.86298 22.7217 10.0743 22.5452 10.2462C22.3687 10.418 22.1597 10.5039 21.9182 10.5039H19.243ZM23.7017 10.5039V9.61218H26.8227C26.9435 9.61218 27.048 9.57036 27.1362 9.4868C27.2244 9.39852 27.2686 9.29169 27.2686 9.16632V7.82872H23.7017V6.04526H24.5934V6.93699H28.1603V9.61218C28.1603 9.86298 28.0721 10.0743 27.8956 10.2462C27.7191 10.418 27.5101 10.5039 27.2686 10.5039H23.7017Z" fill="#2C40F2" fill-opacity="0.75"/>
<path d="M32.619 10.5039V6.93699L31.7273 6.04526H33.0649L36.186 9.16632V6.04526H37.0777V10.5039H36.186L33.5108 7.82872V10.5039H32.619ZM41.5363 11.3956V10.5039H38.8611C38.615 10.5039 38.4037 10.418 38.2272 10.2462C38.0553 10.0743 37.9694 9.86298 37.9694 9.61218V6.93699H38.8611V9.16632C38.8611 9.29169 38.903 9.39852 38.9865 9.48681C39.0748 9.57036 39.1816 9.61218 39.307 9.61218H41.5363V6.93699H42.4281V10.5039C42.4281 10.7501 42.3398 10.9591 42.1633 11.1309C41.9868 11.3074 41.7779 11.3956 41.5363 11.3956ZM46.4409 9.61218C46.5617 9.61218 46.666 9.57036 46.7543 9.48681C46.8426 9.39852 46.8867 9.29169 46.8867 9.16632V7.82872H44.2115V9.16632C44.2115 9.29169 44.2534 9.39852 44.3369 9.48681C44.4252 9.57036 44.532 9.61218 44.6574 9.61218H46.4409ZM44.2115 10.5039C43.9607 10.5039 43.7494 10.418 43.5776 10.2462C43.4057 10.0696 43.3198 9.85835 43.3198 9.61218V6.93699H47.7785V9.61218C47.7785 9.86298 47.6902 10.0743 47.5136 10.2462C47.337 10.418 47.1284 10.5039 46.8867 10.5039H44.2115ZM48.6702 10.5039V6.93699H52.2371C52.4832 6.93699 52.6923 7.02523 52.864 7.20174C53.0406 7.37822 53.1288 7.58719 53.1288 7.82872V10.5039H52.2371V8.27459C52.2371 8.15385 52.193 8.04933 52.1047 7.9611C52.0164 7.87286 51.9121 7.82872 51.7912 7.82872H49.5619V10.5039H48.6702ZM57.5875 11.3956V10.5039H54.9123C54.6662 10.5039 54.4549 10.418 54.2783 10.2462C54.1066 10.0743 54.0206 9.86298 54.0206 9.61218V6.93699H58.4792C58.4792 7.18779 58.391 7.39913 58.2144 7.57097C58.0378 7.7428 57.8292 7.82872 57.5875 7.82872H54.9123V9.16632C54.9123 9.29169 54.9542 9.39852 55.0376 9.48681C55.1259 9.57036 55.2329 9.61218 55.3582 9.61218H57.5875V8.72045H58.4792V10.5039C58.4792 10.7501 58.391 10.9591 58.2144 11.1309C58.0378 11.3074 57.8292 11.3956 57.5875 11.3956Z" fill="#F1F1F1"/>
</svg>
