<svg width="20" height="21" viewBox="0 0 20 21" fill="none" xmlns="http://www.w3.org/2000/svg">
<rect x="0.0811768" y="0.687012" width="19.3744" height="19.3744" rx="5.53556" fill="#F5F3FE"/>
<g clip-path="url(#clip0_1_331)">
<path d="M10.6334 8.47152C10.8885 8.52128 11.1416 8.63376 11.3254 8.8175C11.5091 9.00123 11.6216 9.2544 11.6713 9.50944M10.8064 7.26062C11.3363 7.31948 11.8131 7.57582 12.1903 7.95256C12.5675 8.3293 12.8227 8.80666 12.8822 9.33645M12.882 11.9232V12.8607C12.8835 13.2191 12.5613 13.5183 12.1994 13.4857C9.07656 13.4881 6.65475 11.0438 6.6572 7.9419C6.62461 7.58201 6.92239 7.26099 7.28031 7.26065H8.21967C8.37163 7.25916 8.51895 7.31286 8.63417 7.41176C8.96174 7.69291 9.17244 8.6472 9.09137 9.02656C9.02808 9.32274 8.72952 9.52995 8.52653 9.73254C8.97228 10.5149 9.62134 11.1627 10.4053 11.6075C10.6082 11.405 10.8159 11.107 11.1126 11.0438C11.4933 10.9628 12.4538 11.1738 12.7338 11.5036C12.8331 11.6206 12.8859 11.7699 12.882 11.9232Z" stroke="#7E74F1" stroke-width="0.518958" stroke-linecap="round" stroke-linejoin="round"/>
</g>
<defs>
<clipPath id="clip0_1_331">
<rect width="8.30334" height="8.30334" fill="white" transform="translate(5.61682 6.22266)"/>
</clipPath>
</defs>
</svg>
