<svg width="9" height="9" viewBox="0 0 9 9" fill="none" xmlns="http://www.w3.org/2000/svg">
<g clip-path="url(#clip0_1_545)">
<path d="M8.21986 2.06367C8.2199 2.00256 8.20374 1.94253 8.17304 1.8897C8.14233 1.83686 8.09817 1.79311 8.04505 1.76289C7.99194 1.73268 7.93176 1.71708 7.87065 1.71769C7.80955 1.71829 7.74969 1.73509 7.69718 1.76635C7.49468 1.88688 7.27667 1.97919 7.04918 2.04071C6.7243 1.76193 6.30995 1.60938 5.88187 1.61094C5.41224 1.61148 4.9612 1.79451 4.62399 2.12138C4.28678 2.44825 4.0898 2.89338 4.07464 3.36277C3.14881 3.21513 2.3097 2.7319 1.71734 2.00522C1.68165 1.96192 1.63606 1.92783 1.58444 1.90584C1.53281 1.88385 1.47665 1.87459 1.42069 1.87885C1.36477 1.88346 1.31081 1.90162 1.26348 1.93176C1.21615 1.9619 1.17688 2.00311 1.14905 2.05184C1.00635 2.30088 0.924386 2.58006 0.909827 2.86671C0.895268 3.15337 0.94852 3.43941 1.06526 3.70163L1.06458 3.7023C1.01212 3.73462 0.968816 3.77985 0.938825 3.83368C0.908834 3.88751 0.893155 3.94814 0.893287 4.00976C0.892651 4.06059 0.8957 4.1114 0.90241 4.1618C0.937746 4.59712 1.13068 5.0046 1.44502 5.30783C1.42369 5.34846 1.41068 5.39292 1.40673 5.43864C1.40279 5.48435 1.40799 5.53039 1.42204 5.57407C1.55909 6.00105 1.85053 6.36152 2.23934 6.58495C1.84432 6.7377 1.4178 6.79096 0.997348 6.74003C0.919529 6.73027 0.840702 6.74724 0.773798 6.78817C0.706893 6.82909 0.655883 6.89154 0.629135 6.96527C0.602387 7.03899 0.60149 7.11962 0.626591 7.19393C0.651691 7.26823 0.701299 7.3318 0.767277 7.3742C1.49039 7.83994 2.33234 8.08755 3.19246 8.08744C4.16785 8.09841 5.11952 7.78673 5.89943 7.20087C6.67935 6.61501 7.24378 5.78783 7.50494 4.84799C7.62709 4.43858 7.68946 4.01367 7.6901 3.58642C7.6901 3.56378 7.6901 3.54047 7.68976 3.51716C7.87039 3.32235 8.01033 3.09345 8.10135 2.84386C8.19238 2.59428 8.23267 2.32903 8.21986 2.06367V2.06367ZM7.07585 3.1749C7.01871 3.24249 6.98979 3.32948 6.9951 3.41783C6.99848 3.47491 6.99814 3.53234 6.99814 3.58642C6.99744 3.94746 6.94452 4.30649 6.84104 4.65238C6.62775 5.45206 6.15226 6.15703 5.49074 6.65438C4.82921 7.15174 4.01992 7.41271 3.19246 7.3955C2.89523 7.39559 2.59902 7.36066 2.30996 7.29143C2.67857 7.17264 3.02322 6.98951 3.32795 6.75051C3.38407 6.70632 3.42515 6.64585 3.44554 6.57738C3.46593 6.50892 3.46463 6.43582 3.44183 6.36813C3.41903 6.30043 3.37584 6.24145 3.31818 6.19927C3.26053 6.15709 3.19123 6.13379 3.11981 6.13256C2.83225 6.12809 2.55765 6.01217 2.35387 5.80923C2.40557 5.79943 2.45692 5.78727 2.50794 5.77274C2.58267 5.75146 2.64807 5.70566 2.69361 5.6427C2.73914 5.57974 2.76217 5.50328 2.75897 5.42565C2.75577 5.34801 2.72653 5.27371 2.67597 5.21471C2.62541 5.15571 2.55646 5.11544 2.48023 5.10039C2.31332 5.06742 2.15625 4.99641 2.02124 4.89287C1.88623 4.78933 1.77692 4.65604 1.7018 4.50338C1.76432 4.51192 1.82725 4.51722 1.89032 4.51926C1.96526 4.52039 2.03861 4.49766 2.09977 4.45436C2.16093 4.41105 2.20673 4.34942 2.23055 4.27836C2.25338 4.20667 2.2522 4.12948 2.22721 4.05851C2.20221 3.98754 2.15475 3.92666 2.09203 3.88509C1.93985 3.78371 1.8152 3.64617 1.72923 3.48479C1.64326 3.3234 1.59866 3.14322 1.59942 2.96036C1.59942 2.93739 1.6001 2.91441 1.60145 2.89178C2.37686 3.61495 3.38263 4.04125 4.44154 4.09558C4.49499 4.09769 4.54822 4.08762 4.59721 4.06614C4.6462 4.04466 4.68967 4.01233 4.72433 3.97159C4.75864 3.93045 4.78294 3.88191 4.79531 3.82979C4.80768 3.77767 4.80778 3.72339 4.7956 3.67123C4.77582 3.58867 4.76572 3.50408 4.76553 3.41918C4.76585 3.12321 4.88356 2.83946 5.09284 2.63018C5.30212 2.4209 5.58588 2.30319 5.88184 2.30288C6.03412 2.30247 6.18482 2.33363 6.32445 2.3944C6.46407 2.45517 6.58958 2.54423 6.69305 2.65595C6.73296 2.69887 6.78318 2.73088 6.83894 2.74892C6.89471 2.76696 6.95416 2.77043 7.01165 2.75901C7.15377 2.73135 7.29385 2.6941 7.43094 2.64751C7.33744 2.83883 7.21794 3.0163 7.07585 3.1749V3.1749Z" fill="rgba(101, 109, 114, 1)
" fill-opacity="0.7"/>
</g>
<defs>
<clipPath id="clip0_1_545">
<rect width="8.30334" height="8.30334" fill="white" transform="translate(0.265587 0.697027)"/>
</clipPath>
</defs>
</svg>
